<?xml version="1.0" standalone="no"?><!DOCTYPE svg PUBLIC "-//W3C//DTD SVG 1.1//EN" "http://www.w3.org/Graphics/SVG/1.1/DTD/svg11.dtd"><svg t="1677252998629" class="icon" viewBox="0 0 1024 1024" version="1.1" xmlns="http://www.w3.org/2000/svg" p-id="1299" xmlns:xlink="http://www.w3.org/1999/xlink" width="200" height="200"><path d="M752 292.00018719c0-55.13749969-44.86249969-100.00000031-100.00000031-99.99999938s-100.00000031 44.86249969-99.99999938 99.99999938 44.86249969 100.00000031 99.99999938 100.00000031 100.00000031-44.86249969 100.00000031-100.00000031z m-160.00000031 0a60 60 0 1 1 60 60 60.06874969 60.06874969 0 0 1-60-60z m-84.64374937 672.93125062l389.99999999-389.99999999A49.67500031 49.67500031 0 0 0 912.00000031 539.57518719L912.00000031 82.00018719a50.05624969 50.05624969 0 0 0-50.00000062-49.99999969l-337.575 0a49.67500031 49.67500031 0 0 0-35.35624969 14.64375l-390 390a49.99999969 49.99999969 0 0 0 0 70.71250031l24.64999969 24.64374938-24.64999969 24.64375031a49.99999969 49.99999969 0 0 0 0 70.71250031l337.575 337.575a50.0625 50.0625 0 0 0 70.71250032 0z m-380.00000063-485.86250062a10.00000031 10.00000031 0 0 1 0-14.1375l390-390A9.91249969 9.91249969 0 0 1 524.42499969 72.00018781L861.99999969 72.00018781a10.00000031 10.00000031 0 0 1 10.00000031 9.99999939l0 337.575a9.91249969 9.91249969 0 0 1-2.93125031 7.06874999l-390 390a10.00000031 10.00000031 0 0 1-14.1375 0z m337.575 457.575l-337.575-337.575a10.00000031 10.00000031 0 0 1 0-14.1375L152 560.2814375l284.64375 284.65000031a50.0625 50.0625 0 0 0 70.71250031 0L872 480.28143781l0 59.29374938a9.91249969 9.91249969 0 0 1-2.93125031 7.06875l-390 390a10.00000031 10.00000031 0 0 1-14.1375 0z" p-id="1300"></path></svg>