<?xml version="1.0" standalone="no"?><!DOCTYPE svg PUBLIC "-//W3C//DTD SVG 1.1//EN" "http://www.w3.org/Graphics/SVG/1.1/DTD/svg11.dtd"><svg t="1677252948035" class="icon" viewBox="0 0 1024 1024" version="1.1" xmlns="http://www.w3.org/2000/svg" p-id="1019" xmlns:xlink="http://www.w3.org/1999/xlink" width="200" height="200"><path d="M908 278l0 510 0 0c-6 114-180 204-390 204-216 0-384-90-390-204l0 0L128 278c0-12 0-18 0-30C116 128 290 32 512 32c222 0 396 96 396 216C908 260 908 272 908 278zM512 104c-192 0-336 78-336 150 0 72 144 150 336 150 192 0 336-78 336-150C848 182 704 104 512 104zM848 374c-72 60-198 96-342 96-138 0-270-36-336-96l0 36C188 488 344 548 512 548c168 0 324-66 342-138L854 374zM848 512c-66 60-198 96-342 96C368 608 242 566 170 512l0 30c18 78 174 138 336 138 168 0 324-66 342-138L848 512zM848 638c-66 60-198 96-342 96-138 0-270-36-336-96l0 30c18 78 174 138 336 138 168 0 324-66 342-138L848 638zM848 788l0-18c-66 60-198 96-342 96-138 0-270-36-336-96l0 18 0 0C182 866 338 932 512 932 680 932 842 866 848 788L848 788zM584 248C602 254 614 272 614 284c0 24-12 36-36 48C560 338 542 344 524 344l0 24L506 368 506 344c-24 0-48-6-60-12C422 320 410 308 410 284l54 0c0 12 6 18 6 24 6 6 18 12 30 12L500 260 488 254C464 254 446 248 434 236 422 230 416 218 416 206c0-6 0-18 6-24 6-6 12-12 18-18C452 158 458 158 470 152 482 152 488 152 506 152L506 134l18 0L524 152C542 152 560 158 572 164c24 12 36 24 36 42L554 206c0-6-6-12-6-18C542 182 536 182 524 182l0 48C554 236 578 242 584 248zM524 314c12 0 18 0 24-6 6-6 12-12 12-18 0-6-6-12-12-18C542 272 536 266 524 266L524 314zM506 182c-12 0-18 0-24 6C470 188 470 194 470 200c0 6 6 12 12 18 6 0 12 6 24 6L506 182z" p-id="1020"></path></svg>