<?xml version="1.0" standalone="no"?><!DOCTYPE svg PUBLIC "-//W3C//DTD SVG 1.1//EN" "http://www.w3.org/Graphics/SVG/1.1/DTD/svg11.dtd"><svg t="1677252976745" class="icon" viewBox="0 0 1024 1024" version="1.1" xmlns="http://www.w3.org/2000/svg" p-id="1158" xmlns:xlink="http://www.w3.org/1999/xlink" width="200" height="200"><path d="M696 192h-368a24 24 0 0 0 0 48h368a24 24 0 0 0 0-48z m136 0h-40a24 24 0 0 0 0 48H832a16 16 0 0 1 16 16v640a16 16 0 0 1-16 16H192a16 16 0 0 1-16-16V256a16 16 0 0 1 16-16h40a24 24 0 0 0 0-48H192a64 64 0 0 0-64 64v640a64 64 0 0 0 64 64h640a64 64 0 0 0 64-64V256a64 64 0 0 0-64-64z" p-id="1159"></path><path d="M320 752h400a16 16 0 0 1 16 16 16 16 0 0 1-16 16H320a16 16 0 0 1-16-16 16 16 0 0 1 16-16zM320 560h400a16 16 0 0 1 16 16 16 16 0 0 1-16 16H320a16 16 0 0 1-16-16 16 16 0 0 1 16-16zM320 368h400a16 16 0 0 1 16 16 16 16 0 0 1-16 16H320a16 16 0 0 1-16-16 16 16 0 0 1 16-16z" p-id="1160"></path><path d="M656 192a144 144 0 0 0-288 0v8a140.64 140.64 0 0 0 5.76 40h51.04a93.44 93.44 0 0 1-8.8-40V192a96 96 0 0 1 192 0v8a93.44 93.44 0 0 1-8.8 40h51.04a140.64 140.64 0 0 0 5.76-40z" p-id="1161"></path></svg>